<svg width="788" height="338" viewBox="0 0 788 338" fill="none" xmlns="http://www.w3.org/2000/svg">
<path fill-rule="evenodd" clip-rule="evenodd" d="M787 338H1.52588e-05V174C-0.00405884 162.242 1.17891 150.494 3.53098 138.953C8.08768 116.689 16.9854 95.5403 29.716 76.7151C48.6017 48.741 75.1937 26.843 106.271 13.6741C116.797 9.22485 127.738 5.82861 138.933 3.53491C150.474 1.18164 162.222 -0.00268555 174 0H787V338Z" fill="#AFAAC1"/>
<path fill-rule="evenodd" clip-rule="evenodd" d="M788 338H16V174C15.9947 163.21 17.0812 152.407 19.2429 141.795C23.4321 121.314 31.6156 101.86 43.326 84.543C60.6927 58.8184 85.147 38.6821 113.726 26.574C123.405 22.4829 133.465 19.3599 143.759 17.251C154.37 15.0874 165.171 13.998 176 14H788V338Z" fill="black"/>
<path fill-rule="evenodd" clip-rule="evenodd" d="M787 338H77V168C76.9697 148.873 82.6825 130.175 93.3987 114.328C103.817 98.8936 118.487 86.811 135.632 79.5442C147.454 74.541 160.163 71.9753 173 72.0002H787V338Z" fill="#1E1E1E"/>
<path fill-rule="evenodd" clip-rule="evenodd" d="M767.8 133H334C306.386 133 284 110.614 284 83C284 55.3857 306.386 33 334 33H767.8C774.39 32.9883 780.917 34.2871 787 36.821V129.179C780.917 131.713 774.39 133.012 767.8 133H767.8Z" fill="black"/>
<path fill-rule="evenodd" clip-rule="evenodd" d="M496 86C496 83.5147 496.879 81.3934 498.636 79.636C500.393 77.8787 502.515 77 505 77H602C604.485 77 606.607 77.8787 608.364 79.636C610.121 81.3934 611 83.5147 611 86C611 88.4853 610.121 90.6066 608.364 92.364C606.607 94.1213 604.485 95 602 95H505C502.515 95 500.393 94.1213 498.636 92.364C496.879 90.6066 496 88.4853 496 86Z" fill="#2B2B29"/>
<circle cx="657" cy="86" r="17" fill="#171717"/>
<circle cx="657" cy="86" r="16" stroke="#2B2B29" stroke-width="2"/>
<circle cx="657" cy="86" r="6" fill="#232A5E"/>
</svg>
